<?xml version="1.0" encoding="UTF-8" standalone="no"?> <svg id="line" xmlns="http://www.w3.org/2000/svg" viewBox="0 0 64 64"><title>1</title><path d="M13.54083,16.99823a.983.983,0,0,0,0-1.96582A.983.983,0,0,0,13.54083,16.99823Z"/><path d="M59.02569,11.572a7.19378,7.19378,0,0,0-6.11377-4.00195H30.09209a1.00009,1.00009,0,0,0,0,2l22.75-.00244c3.49227.082,5.80677,4.00216,5.01558,7.24859-1.139,6.05324-11.82723,5.62375-10.70911-1.0509.89724-2.6658,3.00729-3.64786,5.0763-2.70612A2.81159,2.81159,0,0,1,53.242,17.282a1.00011,1.00011,0,0,0,1.66022,1.11521c3.98442-6.57757-6.18779-11.33728-9.43733-3.89L18.538,14.50708a5.962,5.962,0,0,0-3.28417-3.39952,4.94975,4.94975,0,0,0-6.152,7.28925A.99991.99991,0,0,0,10.762,17.28243c-2.04072-2.81368,1.70576-5.91277,4.35071-3.99053a4.138,4.138,0,0,1,1.10476,5.77771c-1.86853,2.68251-6.61661,2.58764-8.65856.35294-3.24772-3.12289-1.047-9.717,3.53332-9.85244l14.99987,0a1.00011,1.00011,0,0,0,0-2l-15.06978.00243a7.16564,7.16564,0,0,0-6.04248,3.99707C.92137,19.15877,9.84592,26.565,16.62894,21.48207l2.18386.00011V43.87585a5.52606,5.52606,0,0,0-5.10559,4.514h-1.0951a2.002,2.002,0,0,0-2,2v4.04a2.002,2.002,0,0,0,2,2h26.8501a1.00009,1.00009,0,0,0,0-2H12.61211v-4.04c1.25309-.00605,5.15029.00436,6.47023,0a1.00008,1.00008,0,0,0,0-2H15.75567A3.68433,3.68433,0,0,1,19.808,45.8597c6.10917.00293,18.14047-.0002,24.38321.0009A3.70247,3.70247,0,0,1,48.24782,48.39l-25.16549-.00008a1.00012,1.00012,0,0,0,.00005,2H51.3919v4.04H43.46221a1.00011,1.00011,0,0,0,.00005,2H51.3919a2.002,2.002,0,0,0,2-2v-4.04a2.002,2.002,0,0,0-2-2H50.29382a5.48088,5.48088,0,0,0-5.1026-4.49884V21.48218H47.376A7.79711,7.79711,0,0,0,59.02569,11.572ZM28.63262,43.85962H25.494v-15.29a1.5695,1.5695,0,0,1,3.13867.00007Zm14.5586,0H40.38213V36.72974a1.0001,1.0001,0,0,0-2,0v7.12984H35.242V28.57007a1.57023,1.57023,0,0,1,3.14013.00007v4.1596a1.00011,1.00011,0,0,0,2-.00005V28.57007a3.57029,3.57029,0,0,0-7.14013.00011V43.85962H30.63262v-15.29a3.56948,3.56948,0,0,0-7.13867.00008v15.29H20.8128V21.48218H43.19122ZM18.285,19.48218a5.98363,5.98363,0,0,0,.67035-2.9751H45.04809a5.98083,5.98083,0,0,0,.67084,2.9751Z"/><path d="M49.48046,16.01532a.983.983,0,0,0,1.96582,0A.983.983,0,0,0,49.48046,16.01532Z"/></svg>